<svg width="36" height="36" viewBox="0 0 36 36" fill="none" xmlns="http://www.w3.org/2000/svg">
<rect x="17.9503" y="2.20801" width="1.76574" height="5.29722" rx="0.88287" fill="#2967F0"/>
<rect x="6.54541" y="9" width="1.63636" height="4.90909" rx="0.818182" fill="#2967F0"/>
<rect x="9.81824" y="9.81836" width="1.63636" height="4.90909" rx="0.818182" fill="#7989DC"/>
<rect x="21.4818" y="0.442383" width="1.76574" height="7.06296" rx="0.88287" fill="#7989DC"/>
<rect x="25.0137" y="2.20801" width="1.76574" height="5.29722" rx="0.88287" fill="#2967F0"/>
<path d="M16.3636 8.00744C16.3636 7.20968 16.8986 6.51101 17.6687 6.30286L30.8774 2.73293C31.3975 2.59237 31.9091 2.98406 31.9091 3.52277V33.545H16.3636V8.00744Z" fill="#C7C7D7"/>
<rect x="5.72729" y="13.0908" width="12.2727" height="20.4545" fill="#DEDEE7"/>
<rect x="7.35559" y="14.5684" width="1.76574" height="1.76574" fill="white"/>
<rect x="7.35559" y="18.0996" width="1.76574" height="1.76574" fill="white"/>
<rect x="7.35559" y="21.6309" width="1.76574" height="1.76574" fill="white"/>
<rect x="7.35559" y="25.1631" width="1.76574" height="1.76574" fill="white"/>
<rect x="10.8875" y="14.5684" width="1.76574" height="1.76574" fill="white"/>
<rect x="10.8875" y="18.0996" width="1.76574" height="1.76574" fill="white"/>
<rect x="10.8875" y="21.6309" width="1.76574" height="1.76574" fill="white"/>
<rect x="10.8875" y="25.1631" width="1.76574" height="1.76574" fill="white"/>
<rect x="14.4193" y="14.5684" width="1.76574" height="1.76574" fill="white"/>
<rect x="28.5447" y="5.73926" width="1.76574" height="24.7204" rx="0.818182" fill="white"/>
<rect x="25.0137" y="7.50488" width="1.76574" height="22.9546" rx="0.818182" fill="white"/>
<rect x="21.4818" y="9.27051" width="1.76574" height="21.1889" rx="0.818182" fill="white"/>
<rect x="17.9503" y="11.0371" width="1.76574" height="19.4231" rx="0.818182" fill="white"/>
<rect x="14.4193" y="18.0996" width="1.76574" height="1.76574" fill="white"/>
<rect x="14.4193" y="21.6309" width="1.76574" height="1.76574" fill="white"/>
<rect x="14.4193" y="25.1631" width="1.76574" height="1.76574" fill="white"/>
<rect x="4.09094" y="11.4541" width="15.5455" height="1.63636" rx="0.818182" fill="#2967F0"/>
<rect x="14.4193" y="6.32129" width="18.9239" height="1.76574" rx="0.88287" transform="rotate(-15 14.4193 6.32129)" fill="#2967F0"/>
<rect x="18" y="31.9092" width="15.5455" height="1.63636" rx="0.818182" fill="#ABABBB"/>
<rect x="4.09094" y="31.9092" width="15.5455" height="1.63636" rx="0.818182" fill="#C1C1D7"/>
</svg>
