<svg width="36" height="36" viewBox="0 0 36 36" fill="none" xmlns="http://www.w3.org/2000/svg">
<path d="M22.3164 17.4817H19.7198C19.3267 17.4817 19.0051 17.1601 19.0051 16.767L18.6478 10.7112C18.6478 10.7112 18.0696 5.69503 21.0687 5.03587C21.0687 5.03587 22.2882 2.66291 26.1936 3.42316C26.247 3.43357 26.2983 3.45273 26.3501 3.46878C27.2498 3.74785 28.0862 4.24162 28.7816 4.93346C30.9085 7.04984 30.4808 9.55028 30.5342 9.86128C30.5342 11.5985 30.5616 9.66758 30.1768 16.7671C30.1768 17.1602 29.8553 17.4817 29.4622 17.4817H26.6997" fill="#7F7369"/>
<path d="M22.7675 17.4819V16.6321C21.1623 15.9228 20.1615 14.4048 20.0772 12.7407C20.0766 12.7297 20.0749 12.6946 20.0746 12.6881C20.0723 12.6292 20.0708 12.5703 20.0708 12.5108C20.0716 9.83711 20.0692 9.9994 20.0728 9.95545C20.046 8.52844 20.2668 5.5348 22.5365 5.03597C22.5365 5.03597 23.2838 3.58215 25.4816 3.31504C23.807 3.13101 21.8427 3.62858 21.0683 5.03597C19.0444 5.48078 18.5576 7.94504 18.6056 10.0053C18.6063 10.034 18.607 10.062 18.6079 10.0893C18.6197 10.4713 18.6474 10.7113 18.6474 10.7113L19.0047 16.7671C19.0047 17.1602 19.3263 17.4818 19.7194 17.4818C20.3483 17.4819 22.0801 17.4819 22.7675 17.4819Z" fill="#72655A"/>
<path d="M16.404 30.7291L17.1723 23.8642C17.4415 21.7913 17.3311 20.9949 18 20.1833C17.7934 19.9321 17.4985 19.6979 17.3041 19.5791L17.2827 19.5738C16.5594 19.1406 15.9505 19.1225 14.6065 18.7527L13.2321 18.0948V16.4531C12.0807 16.9623 10.7566 16.9445 9.64823 16.4625L9.64231 18.1016L8.27381 18.7527C6.93844 19.1202 6.32231 19.1398 5.59761 19.5739L5.57621 19.5792C5.51523 19.6164 5.4508 19.6613 5.38729 19.7116C4.35171 20.455 4.33531 21.4208 4.24608 22.1345L3.83481 25.8099C3.25555 31.0698 3.2731 30.6467 3.2731 31.0522C3.26401 31.7197 3.67356 32.7276 4.91774 32.7276C5.03314 32.7276 17.9017 32.7282 18 32.7266C16.8854 32.708 16.3064 31.8578 16.404 30.7291Z" fill="#F6DBE3"/>
<path d="M4.75487 31.0492C4.74486 30.4693 4.86613 30.4756 5.77469 21.0636C5.86967 20.285 6.10571 19.6489 6.7849 19.1226C6.68204 19.1552 6.1622 19.2349 5.59767 19.5731L5.57627 19.5784C5.51115 19.6181 5.44643 19.664 5.38735 19.7107C4.35177 20.4542 4.33537 21.42 4.24614 22.1337C4.23872 22.1987 3.2731 30.7668 3.2731 31.0513C3.26401 31.7189 3.67356 32.7267 4.91774 32.7267H6.39945C5.33229 32.7267 4.73612 31.924 4.75487 31.0492Z" fill="#E3CED4"/>
<path d="M11.1245 19.5029V16.8179C10.5909 16.7821 10.0915 16.6545 9.64838 16.4619L9.64246 18.101L11.1245 19.5029Z" fill="#E3CED4"/>
<path d="M32.7155 30.7285C31.669 21.4612 31.728 21.7227 31.6342 21.2697C31.4822 20.5345 31.0389 19.9544 30.4236 19.5786L30.4023 19.5733C30.1404 19.4164 29.8484 19.2928 29.535 19.2025L26.5176 18.4513C26.4195 18.4069 26.3516 18.2609 26.3516 18.0943V16.6389C25.2144 17.1349 23.889 17.127 22.7678 16.6313V18.0944C22.7678 18.2609 22.6999 18.407 22.6018 18.4514C20.0493 19.1314 19.4816 19.1155 18.7171 19.5734L18.6958 19.5787C17.8514 20.0944 17.525 20.7933 17.4125 21.7159L16.4039 30.7285C16.3028 31.897 16.9222 32.727 18.0373 32.727C19.8118 32.727 29.6638 32.727 31.0821 32.727C32.3263 32.727 32.7359 31.7192 32.7268 31.0516C32.7268 31.0509 32.7268 31.0502 32.7268 31.0496C32.7288 30.9287 32.7233 30.8189 32.7155 30.7285Z" fill="#F6DBE3"/>
<path d="M17.8746 31.0525C17.8746 31.0518 17.8746 31.0511 17.8746 31.0504C17.8725 30.9296 17.878 30.8198 17.8858 30.7294L18.8944 21.1834C19.0022 20.2993 19.3034 19.6008 20.1525 19.062C19.9032 19.1375 19.335 19.2043 18.7174 19.5742L18.696 19.5795C17.8516 20.0952 17.5252 20.7942 17.4127 21.7167L16.4041 30.7294C16.3031 31.8978 16.9225 32.7279 18.0376 32.7279C18.9547 32.7279 18.602 32.7279 19.5193 32.7279C18.275 32.7279 17.8655 31.7201 17.8746 31.0525Z" fill="#D8A373"/>
<path d="M32.1647 25.8083C31.6891 21.5864 31.7096 21.6354 31.6341 21.2697C31.4812 20.5303 31.033 19.9508 30.4234 19.5786C30.4174 19.5771 30.396 19.5718 30.4021 19.5733C30.1402 19.4164 29.8483 19.2928 29.5348 19.2025L26.5174 18.4513C26.4194 18.4069 26.3515 18.2609 26.3515 18.0943V16.6389V16.6313C25.205 17.1378 23.8863 17.1256 22.7676 16.6313V16.6389V18.0943C22.7676 18.2609 22.6997 18.4069 22.6016 18.4513C20.0491 19.1313 19.4814 19.1154 18.717 19.5733C18.7109 19.5748 18.6895 19.5801 18.6956 19.5786C17.8588 20.0895 17.5247 20.7947 17.4123 21.7159L16.9543 25.8082L19.841 26.1111C19.9945 26.1272 20.1087 26.2605 20.1009 26.4147L19.7838 32.727C23.3173 32.727 25.8206 32.727 29.3526 32.727L29.0202 26.4391C29.0113 26.2714 29.1354 26.1261 29.3024 26.1086L32.1647 25.8083Z" fill="#415A6B"/>
<path d="M16.9543 25.8082L18.3894 25.9587L18.8941 21.1824C19.0018 20.2985 19.3029 19.5999 20.1522 19.061C19.7933 19.1572 19.2711 19.2413 18.717 19.5733C18.711 19.5748 18.6896 19.5801 18.6957 19.5786C18.0781 19.9556 17.6365 20.5371 17.4851 21.2697C17.392 21.7189 17.4096 21.8169 16.9543 25.8082Z" fill="#A82626"/>
<path d="M17.2932 19.5785C17.2871 19.577 17.2657 19.5718 17.2718 19.5733C16.5469 19.139 15.9282 19.1187 14.6049 18.7544L14.6062 18.7521L13.2318 18.0942L13.2219 18.1093C13.2218 18.1074 13.2217 18.1056 13.2216 18.1038L11.4292 19.7915L9.64197 18.101L8.27347 18.7521C6.93805 19.1196 6.32197 19.1392 5.59728 19.5733L5.57588 19.5786C4.73141 20.0942 4.4051 20.7934 4.29258 21.7159L3.83447 25.8093L6.66594 26.1064C6.84445 26.1251 6.97717 26.2802 6.96819 26.4594L6.65351 32.727C9.56264 32.727 13.1373 32.727 16.2223 32.727L15.8899 26.4398C15.881 26.2716 16.0054 26.126 16.1729 26.1084L16.9297 26.029C17.4847 21.4253 17.3224 21.0121 17.9947 20.1893C17.8472 20.0087 17.454 19.6767 17.2932 19.5785Z" fill="#C7C7D7"/>
<path d="M5.77466 21.0646C5.86964 20.286 6.10568 19.6499 6.78487 19.1235C6.65031 19.1617 6.14446 19.2465 5.59764 19.574L5.57624 19.5793C5.37587 19.7017 5.07752 19.9417 4.87479 20.19C4.1574 21.0682 4.35248 21.7608 3.83484 25.8101L5.29935 25.9637C5.29498 26.0103 5.35809 25.3796 5.77466 21.0646Z" fill="#8D8DA8"/>
<path d="M27.726 18.7527L26.5176 18.4519C26.4196 18.4075 26.3517 18.2614 26.3517 18.0949V16.4617V16.4541C25.1957 16.9648 23.8753 16.9434 22.7678 16.4541V16.4617V18.0949C22.7678 18.2614 22.6999 18.4075 22.6018 18.4519L21.3752 18.7573C22.8494 21.2367 26.253 21.2376 27.726 18.7527Z" fill="#F6DBE3"/>
<path d="M5.81177 10.4352V8.89035C5.81177 4.34302 10.9526 1.71211 14.6408 4.28147C17.5338 6.30137 16.9828 9.27171 17.0464 10.4352" fill="#4C4846"/>
<path d="M5.81177 10.4352V8.89035C5.81177 4.34302 10.9526 1.71211 14.6408 4.28147C17.5338 6.30137 16.9828 9.27171 17.0464 10.4352" fill="#4C4846"/>
<path d="M11.9892 3.30074C8.72233 2.97639 5.81177 5.53057 5.81177 8.89009V10.435H6.93191V8.89009C6.93191 6.00213 9.12475 3.58534 11.9892 3.30074Z" fill="#3F3B39"/>
<path d="M17.3257 10.9372C17.3257 11.5845 16.699 12.1093 15.926 12.1093V9.76514C16.699 9.76514 17.3257 10.2899 17.3257 10.9372Z" fill="#F6DBE3"/>
<path d="M5.5321 10.9372C5.5321 11.5845 6.15877 12.1093 6.93184 12.1093V9.76514C6.15877 9.76514 5.5321 10.2899 5.5321 10.9372Z" fill="#F6DBE3"/>
<path d="M15.9268 11.0555V12.109C16.6998 12.109 17.3264 11.5843 17.3264 10.9369C17.3264 10.7474 17.2724 10.5685 17.177 10.4102C16.9466 10.7928 16.4735 11.0555 15.9268 11.0555Z" fill="#E3CED4"/>
<path d="M5.68169 10.4102C5.21726 11.1815 5.88356 12.109 6.93203 12.109V11.0555C6.38527 11.0555 5.9121 10.7928 5.68169 10.4102Z" fill="#E3CED4"/>
<path d="M14.8902 8.13674C14.8738 7.68755 14.5039 7.44144 14.1471 7.49701C14.0636 7.50996 13.9715 7.52348 13.9125 7.53182C12.1395 7.78351 10.4539 7.76763 8.71132 7.49701C8.35717 7.44184 7.98433 7.68398 7.96822 8.13679C7.94388 8.80413 7.66648 9.30032 7.24381 9.60936C7.06772 9.73823 6.93782 9.7823 6.93189 9.78558C6.93189 12.6967 6.89714 12.8912 7.0531 13.5507C7.20245 14.1803 7.47859 14.7431 7.83981 15.2206C9.93232 17.9879 14.3133 17.4476 15.6123 14.1651C16.0423 13.0789 15.9264 12.2543 15.9264 9.78558C15.9096 9.77303 14.9366 9.42798 14.8902 8.13674Z" fill="#F6DBE3"/>
<path d="M8.58107 14.2936C8.26351 13.1617 8.43972 12.4702 8.39007 10.3248C8.39007 10.1039 8.50099 9.91614 8.63635 9.82018C9.17028 9.44037 9.41265 8.81934 9.42778 8.15644C9.43301 7.9334 9.53749 7.74194 9.69166 7.62188C9.47766 7.60048 9.26992 7.5758 9.07794 7.55002C8.96622 7.53507 8.83868 7.51677 8.71143 7.49698C8.35826 7.44199 7.98455 7.68326 7.96832 8.13676C7.94393 8.80295 7.66704 9.29994 7.24392 9.60933C7.06776 9.73826 6.93792 9.78226 6.932 9.78554C6.932 12.7144 6.93027 12.5631 6.9362 12.7073C7.02703 14.762 8.49333 16.4331 10.3234 16.8697C10.2383 16.8061 8.93798 15.5673 8.58107 14.2936Z" fill="#E3CED4"/>
<path d="M11.8738 23.0217V19.373L11.4293 19.7916L10.9847 19.3711V23.0217C10.9847 23.2672 11.1837 23.4662 11.4293 23.4662C11.6748 23.4662 11.8738 23.2672 11.8738 23.0217Z" fill="#8D8DA8"/>
<path d="M13.2319 18.0942L11.4292 19.7915L12.4023 20.7721C12.5881 20.9594 12.8961 20.9411 13.0585 20.7332L14.6062 18.7521L13.2319 18.0942Z" fill="#DADADA"/>
<path d="M13.9239 18.4255L13.2319 18.0942L11.4292 19.7915L12.0732 20.4404L13.9239 18.4255Z" fill="#CECCCA"/>
<path d="M12.5345 20.8623C12.6159 20.8987 12.7056 20.909 12.7915 20.8935L12.5345 20.8623Z" fill="#CECCCA"/>
<path d="M9.64192 18.1016L11.4291 19.792L10.456 20.7726C10.2702 20.9599 9.96224 20.9417 9.79978 20.7337L8.25208 18.7526L9.64192 18.1016Z" fill="#DADADA"/>
<path d="M10.1695 19.7854L10.7855 20.4409L11.4294 19.792L9.64224 18.1016L8.90955 18.4448L10.1695 19.7854Z" fill="#CECCCA"/>
<path d="M24.257 19.0005V16.8181C23.7254 16.7817 23.2212 16.6544 22.7678 16.4541C22.7227 17.75 22.8852 18.3236 22.6018 18.452L21.3752 18.7573C21.6806 19.2709 22.0934 19.7051 22.5801 20.0245L23.8535 19.5563C23.8537 19.5562 24.257 19.356 24.257 19.0005Z" fill="#E3CED4"/>
<path d="M28.6132 11.0395C28.8663 11.0513 29.0657 11.2596 29.0657 11.513V11.853C29.0644 12.4569 29.1065 13.0433 28.8747 13.8116C28.6411 14.586 28.2012 15.2974 27.5399 15.8857C24.7501 18.3701 20.2673 16.4946 20.0774 12.7405C20.0765 12.7235 20.0771 12.7453 20.0748 12.6878C20.0725 12.629 20.071 12.57 20.071 12.5106C20.071 11.975 20.071 10.7526 20.071 10.2293V10.0015C20.071 9.7369 20.2575 9.51063 20.5164 9.45587C20.9757 9.35876 21.7179 9.09487 22.3911 8.37829C22.5603 8.19823 22.849 8.2076 23.0062 8.39814C23.6595 9.18974 25.4237 10.8904 28.6132 11.0395Z" fill="#F6DBE3"/>
<path d="M22.0179 14.5041C21.4241 13.304 21.562 12.4534 21.5528 10.7854C21.5528 10.2065 21.5528 9.62921 21.5528 9.04932C21.1571 9.28145 20.7874 9.39777 20.5164 9.45507C20.2574 9.50984 20.071 9.7361 20.071 10.0007C20.071 10.5807 20.071 11.8689 20.071 12.5097C20.071 12.5841 20.075 12.6998 20.0752 12.7067C20.0755 12.7126 20.0816 12.8163 20.0857 12.8685C20.2932 15.5084 22.7272 17.3728 25.3092 16.945C23.8898 16.7098 22.6628 15.8031 22.0179 14.5041Z" fill="#E3CED4"/>
<path d="M28.5929 18.9682L27.7259 18.7524C27.0621 19.8724 25.8879 20.6173 24.5492 20.6173C24.5492 20.6172 28.6109 24.6794 28.5929 18.9682Z" fill="#8D8DA8"/>
<path d="M20.5247 18.9687L21.3917 18.7529C22.0556 19.8729 23.2297 20.6178 24.5684 20.6178C24.5684 20.6177 20.5068 24.6799 20.5247 18.9687Z" fill="#8D8DA8"/>
<path d="M22.6365 20.0488C21.9198 20.4303 21.094 20.6124 20.5651 19.9048C20.9859 24.2004 24.5685 20.6176 24.5685 20.6176C23.8616 20.6176 23.2007 20.4097 22.6365 20.0488Z" fill="#8D8DA8"/>
<path d="M26.4819 20.0483C27.1985 20.4298 28.0243 20.6119 28.5533 19.9043C28.1324 24.1999 24.5498 20.6171 24.5498 20.6171C25.2567 20.6171 25.9176 20.4092 26.4819 20.0483Z" fill="#8D8DA8"/>
<path d="M21.0727 19.2242C19.369 17.0764 16.0788 17.3094 14.6636 19.5988C13.8355 20.9367 14.1479 22.1557 14.0793 22.5286H21.9202C21.8953 21.7627 22.1065 20.5263 21.0727 19.2242Z" fill="#7F7369"/>
<path d="M15.1433 20.7525C15.1609 20.6782 15.2023 20.5314 15.2041 20.5252C15.6411 19.0759 16.9052 17.9609 18.4791 17.7691C16.9209 17.5792 15.4506 18.3256 14.6639 19.5991C13.8358 20.937 14.1483 22.1557 14.0796 22.5289H15.0376C15.0387 21.711 15.0072 21.3295 15.1433 20.7525Z" fill="#595149"/>
<path d="M23.0875 25.81C22.743 24.7414 22.2964 24.0744 21.956 23.7266C21.7595 23.9202 21.487 24.0579 21.1769 24.1073C21.7456 24.9274 21.621 25.7458 21.5926 26.2328C21.5797 26.455 21.7797 26.6294 21.9975 26.5842L22.7234 26.4336C23.0058 26.3751 23.1759 26.0844 23.0875 25.81Z" fill="#595149"/>
<path d="M22.3381 23.0508C22.3381 23.6785 21.7306 24.1872 20.9811 24.1872V21.9146C21.7306 21.9146 22.3381 22.4232 22.3381 23.0508Z" fill="#EFD0A3"/>
<path d="M12.9123 25.81C13.2567 24.7414 13.7033 24.0744 14.0437 23.7266C14.2403 23.9202 14.5128 24.0579 14.8229 24.1073C14.2541 24.9274 14.3787 25.7458 14.4071 26.2328C14.42 26.455 14.2201 26.6294 14.0022 26.5842L13.2763 26.4336C12.994 26.3751 12.8238 26.0844 12.9123 25.81Z" fill="#7F7369"/>
<path d="M13.6617 23.0508C13.6617 23.6785 14.2693 24.1872 15.0188 24.1872V21.9146C14.2693 21.9146 13.6617 22.4232 13.6617 23.0508Z" fill="#EFD0A3"/>
<path d="M20.9805 23.2136V24.187C21.9861 24.187 22.6292 23.3087 22.2069 22.564C21.9892 22.948 21.522 23.2136 20.9805 23.2136Z" fill="#E2BF91"/>
<path d="M13.792 22.564C13.369 23.31 14.0156 24.187 15.0185 24.187V23.2136C14.477 23.2136 14.0098 22.948 13.792 22.564Z" fill="#E2BF91"/>
<path d="M23.041 32.7276L22.7319 29.9647C22.6613 29.3862 22.4579 28.9002 21.8812 28.548L21.867 28.5445C21.3624 28.2422 20.9962 28.2548 19.292 27.8008C19.1036 27.7155 19.213 27.3499 19.182 26.4216C18.4206 26.7548 17.5393 26.7409 16.8064 26.4165C16.7763 27.3233 16.8856 27.715 16.6964 27.8008C14.9955 28.2539 14.6267 28.2418 14.1215 28.5445L14.1074 28.548C13.7009 28.7963 13.406 29.18 13.3049 29.669C13.2446 29.9605 13.2604 29.9842 12.9475 32.7276H23.041Z" fill="#EFD0A3"/>
<path d="M12.9473 32.7273C15.395 32.7273 20.5916 32.7273 23.0409 32.7273L22.7317 29.9644C22.6613 29.3865 22.4569 28.8993 21.881 28.5477L21.8669 28.5442C21.3665 28.2445 20.9632 28.2437 19.6122 27.8802C19.6122 27.8929 19.6122 28.2438 19.6122 28.2377C19.6122 28.4938 19.552 28.7377 19.4454 28.9527C19.4278 28.9883 19.3992 29.041 19.3719 29.085C19.3706 29.087 19.353 29.1149 19.3516 29.1169C19.3234 29.1602 19.2932 29.2019 19.2636 29.2391C19.2496 29.2567 19.2307 29.2795 19.2158 29.2963C19.2134 29.299 19.211 29.3017 19.2086 29.3044C19.1991 29.3153 19.1895 29.326 19.1797 29.3366C19.1786 29.3376 19.1775 29.3388 19.1765 29.3399C19.1763 29.3402 19.1761 29.3403 19.1759 29.3406C19.1744 29.3422 19.1729 29.3437 19.1715 29.3454C19.1601 29.3574 19.1484 29.3691 19.1367 29.3807C19.1328 29.3846 19.1291 29.3886 19.1252 29.3924C19.11 29.4071 19.0945 29.4216 19.0788 29.4358C19.0743 29.4399 19.0697 29.4437 19.0652 29.4478C19.0554 29.4566 19.0451 29.4649 19.0352 29.4736C19.0336 29.475 19.0321 29.4763 19.0305 29.4776C19.0245 29.4826 19.0183 29.4875 19.0122 29.4925C19.0016 29.5009 18.9911 29.5094 18.9804 29.5175C18.9737 29.5227 18.9668 29.5278 18.96 29.5329C18.9495 29.5407 18.939 29.5483 18.9283 29.5559C18.9231 29.5595 18.9178 29.5632 18.9125 29.5668C18.9107 29.568 18.909 29.5693 18.9072 29.5705C18.8962 29.578 18.8851 29.5854 18.8739 29.5926C18.8721 29.5937 18.8705 29.5948 18.8687 29.5959C18.8636 29.5992 18.8585 29.6026 18.8533 29.6058C18.8438 29.6117 18.8342 29.6174 18.8246 29.6231C18.8213 29.625 18.8182 29.627 18.8149 29.6289C18.8136 29.6297 18.8121 29.6305 18.8107 29.6313C18.8065 29.6339 18.8024 29.6364 18.7981 29.6388C18.7796 29.6494 18.7609 29.6596 18.7419 29.6695C18.7393 29.6708 18.7367 29.6721 18.7341 29.6733C18.7332 29.6737 18.7323 29.6742 18.7315 29.6746C18.7283 29.6763 18.7251 29.6778 18.722 29.6793C18.7094 29.6856 18.6968 29.692 18.684 29.698C18.6771 29.7012 18.6701 29.7043 18.6632 29.7074C18.6505 29.7131 18.6376 29.7188 18.6247 29.7243C18.6169 29.7276 18.609 29.7307 18.6011 29.7339C18.5887 29.7389 18.5763 29.7437 18.5638 29.7484C18.5557 29.7514 18.5475 29.7544 18.5394 29.7573C18.5267 29.7619 18.5138 29.7662 18.5009 29.7704C18.4946 29.7724 18.4882 29.7745 18.4818 29.7766C18.4802 29.7771 18.4786 29.7776 18.477 29.7781C18.4734 29.7792 18.4698 29.7802 18.4662 29.7813C18.4557 29.7845 18.4451 29.7876 18.4346 29.7905C18.4294 29.7919 18.4243 29.7934 18.419 29.7949C18.4173 29.7953 18.4156 29.7959 18.4138 29.7963C18.3927 29.802 18.3713 29.8072 18.3498 29.812C18.3467 29.8127 18.3434 29.8133 18.3403 29.814C18.3307 29.8161 18.3212 29.8181 18.3116 29.82C18.2861 29.825 18.2603 29.8293 18.2343 29.8331C18.1824 29.8407 18.1296 29.8458 18.0762 29.8483C18.0698 29.8486 18.0634 29.8487 18.0571 29.8489C18.0537 29.849 18.0503 29.8491 18.0468 29.8492C18.0375 29.8495 18.0282 29.8497 18.019 29.8498C18.0164 29.8498 18.0138 29.8498 18.0113 29.8499C18.0106 29.8499 18.01 29.8499 18.0094 29.8499C18.0061 29.8499 18.0029 29.8499 17.9997 29.8499C17.9965 29.8499 17.9933 29.8499 17.99 29.8499C17.9894 29.8499 17.9888 29.8499 17.9881 29.8499C17.9855 29.8499 17.983 29.8499 17.9804 29.8498C17.9711 29.8497 17.9618 29.8495 17.9525 29.8492C17.9491 29.8491 17.9457 29.849 17.9422 29.8489C17.9359 29.8487 17.9295 29.8486 17.9232 29.8483C17.8697 29.8458 17.817 29.8407 17.765 29.8331C17.739 29.8293 17.7133 29.825 17.6877 29.82C17.6781 29.8181 17.6686 29.8161 17.6591 29.814C17.6559 29.8133 17.6527 29.8127 17.6495 29.812C17.628 29.8072 17.6067 29.8019 17.5855 29.7963C17.5838 29.7959 17.582 29.7953 17.5803 29.7949C17.5751 29.7934 17.57 29.7919 17.5648 29.7905C17.5543 29.7876 17.5439 29.7845 17.5335 29.7814C17.5298 29.7803 17.526 29.7793 17.5223 29.7781C17.5207 29.7776 17.5192 29.7771 17.5175 29.7766C17.5112 29.7746 17.5048 29.7725 17.4984 29.7704C17.4855 29.7662 17.4727 29.7619 17.46 29.7573C17.4518 29.7544 17.4436 29.7514 17.4355 29.7484C17.423 29.7437 17.4105 29.7389 17.3982 29.7339C17.3903 29.7307 17.3825 29.7276 17.3746 29.7243C17.3617 29.7188 17.3489 29.7131 17.3361 29.7074C17.3292 29.7043 17.3222 29.7012 17.3153 29.698C17.3026 29.692 17.29 29.6857 17.2774 29.6793C17.2742 29.6778 17.271 29.6763 17.2679 29.6746C17.267 29.6742 17.2661 29.6738 17.2653 29.6733C17.2627 29.6721 17.26 29.6708 17.2575 29.6695C17.2385 29.6596 17.2197 29.6494 17.2012 29.6388C17.197 29.6364 17.1928 29.6339 17.1886 29.6313C17.1872 29.6305 17.1858 29.6297 17.1844 29.6289C17.1812 29.627 17.178 29.625 17.1748 29.6231C17.1652 29.6174 17.1556 29.6117 17.1461 29.6058C17.1409 29.6026 17.1358 29.5992 17.1307 29.5959C17.1289 29.5948 17.1272 29.5937 17.1255 29.5926C16.8033 29.3843 16.5657 29.069 16.4557 28.7042C16.3573 28.3781 16.3958 28.1458 16.3872 27.8774L16.0449 27.9626C14.9712 28.2557 14.6004 28.2571 14.121 28.5443L14.1069 28.5478C13.7056 28.7929 13.4061 29.1773 13.3044 29.6687C13.2442 29.9595 13.2562 30.0164 12.9473 32.7273Z" fill="#2967F0"/>
<path d="M14.0554 30.9848C14.179 29.8703 14.0922 28.9352 15.0298 28.3333L15.044 28.3296C15.1479 28.2642 15.2598 28.208 15.3769 28.1592C15.3983 28.1422 15.4192 28.1268 15.4392 28.1128C14.9649 28.2483 14.5711 28.2741 14.1213 28.5436L14.1071 28.5471C13.6975 28.7972 13.4029 29.1831 13.3024 29.6802C13.243 29.9725 13.2565 30.013 12.9473 32.7266H13.87L14.0554 30.9848Z" fill="#7989DC"/>
<path d="M15.5399 32.7262L15.5812 31.4399C15.5891 31.1944 15.3966 30.9892 15.1512 30.9813C14.9058 30.9717 14.7005 31.1659 14.6926 31.4113L14.6504 32.7262H15.5399Z" fill="#7989DC"/>
<path d="M21.3494 32.7262L21.3072 31.4112C21.2993 31.1659 21.0959 30.9724 20.8486 30.9812C20.6032 30.9891 20.4107 31.1944 20.4186 31.4398L20.4599 32.7262H21.3494Z" fill="#7989DC"/>
<path d="M17.6316 28.7359C17.639 28.7249 17.9792 28.6243 17.995 28.1934V26.665C17.5616 26.6628 17.1603 26.5726 16.8065 26.416C16.7764 27.3231 16.8857 27.7146 16.6965 27.8003L16.3877 27.8771C16.3963 28.145 16.3578 28.3771 16.4562 28.7039C16.4981 28.8429 16.5643 28.9842 16.6296 29.0872L17.6316 28.7359Z" fill="#E2BF91"/>
<path d="M17.7947 20.9249C17.1257 22.0378 15.7055 21.8665 15.2013 21.7647C15.1069 21.7456 15.019 21.8181 15.019 21.9144C15.019 23.7251 14.9637 24.1233 15.1456 24.7248C15.5147 25.9485 16.6445 26.8284 17.9644 26.843C19.6096 26.8636 20.9812 25.5391 20.9812 23.8625C20.9812 23.1045 20.9812 22.5707 20.9812 21.9144C20.9812 21.8182 20.8932 21.7457 20.7989 21.7647C20.2947 21.8666 18.8745 22.0378 18.2055 20.925C18.1122 20.7698 17.8879 20.7698 17.7947 20.9249Z" fill="#FCE3BB"/>
<path d="M16.5444 24.3754C16.4666 23.9267 16.5165 23.7534 16.5004 21.7884C15.9758 21.8894 15.4639 21.8179 15.201 21.7648C15.1066 21.7457 15.0187 21.8182 15.0187 21.9145C15.0187 23.7527 14.9645 24.1269 15.1453 24.7249C15.5942 26.2135 17.1553 27.1581 18.7407 26.7502C17.6145 26.4607 16.7462 25.5365 16.5444 24.3754Z" fill="#EFD0A3"/>
</svg>
