<svg width="36" height="36" viewBox="0 0 36 36" fill="none" xmlns="http://www.w3.org/2000/svg">
<path d="M18.2812 14.4844H20.3906V10.2656H18.2812V6.04688V1.82812H0V6.04688V10.2656H2.10938V14.4844H0V18.7031V22.9219H2.10938V27.1406H0V31.3594H18.2812V27.1406H20.3906V22.9219H18.2812V18.7031V14.4844Z" fill="#DEDEE7"/>
<path d="M18.2812 14.4844H20.3906V10.2656H18.2812V6.04688V1.82812H10.1953V31.3594H18.2812V27.1406H20.3906V22.9219H18.2812V18.7031V14.4844Z" fill="#C7C7D7"/>
<path d="M20.3906 22.9219H2.10938V27.1406H20.3906V22.9219Z" fill="#C7C7D7"/>
<path d="M18.2812 14.4844H0V18.7031H18.2812V14.4844Z" fill="#C7C7D7"/>
<path d="M18.2812 6.04688H0V10.2656H18.2812V6.04688Z" fill="#C7C7D7"/>
<path d="M18.2812 14.4844H10.1953V18.7031H18.2812V14.4844Z" fill="#DEDEE7"/>
<path d="M18.2812 6.04688H10.1953V10.2656H18.2812V6.04688Z" fill="#DEDEE7"/>
<path d="M20.3906 22.9219H10.1953V27.1406H20.3906V22.9219Z" fill="#DEDEE7"/>
<path d="M25.8047 34.1719C20.183 34.1719 15.6094 29.5983 15.6094 23.9766C15.6094 18.3549 20.183 13.7812 25.8047 13.7812C31.4264 13.7812 36 18.3549 36 23.9766C36 29.5983 31.4264 34.1719 25.8047 34.1719Z" fill="#2967F0"/>
<path d="M28.9688 26.0859C28.9688 24.3413 27.5494 22.9219 25.8047 22.9219C25.2231 22.9219 24.75 22.4487 24.75 21.8672C24.75 21.6315 24.8258 21.4088 24.9693 21.2233C25.1923 20.9347 25.5724 20.79 25.9605 20.8455L28.1165 21.1534L28.4148 19.0652L26.8594 18.8431V17.6484H24.75V18.9008C24.1819 19.0965 23.6745 19.4493 23.3004 19.9332C22.8688 20.4915 22.6406 21.1603 22.6406 21.8672C22.6406 23.6119 24.06 25.0312 25.8047 25.0312C26.3862 25.0312 26.8594 25.5044 26.8594 26.0859C26.8594 26.6135 26.4662 27.063 25.9448 27.1315C25.8921 27.1384 25.8259 27.1386 25.748 27.1318L23.4338 26.9335L23.2537 29.0352L24.75 29.1634V30.3047H26.8594V29.0686C28.0974 28.6297 28.9688 27.4443 28.9688 26.0859Z" fill="white"/>
</svg>
