<svg width="36" height="36" viewBox="0 0 36 36" fill="none" xmlns="http://www.w3.org/2000/svg">
<path d="M8.83689 17.0264L6.28877 9.68582C6.18099 9.25591 5.91478 8.88258 5.54346 8.6406C5.17213 8.39861 4.7231 8.30582 4.28627 8.38082C4.06226 8.42858 3.85029 8.52134 3.6632 8.65346C3.47611 8.78559 3.31781 8.95434 3.19789 9.14947C3.07797 9.34461 2.99892 9.56207 2.96556 9.78867C2.93219 10.0153 2.94519 10.2463 3.00377 10.4677L5.62502 18.5621L8.83689 17.0264Z" fill="#E3CED4"/>
<path d="M27.163 17.0265L29.7111 9.68582C29.8189 9.25591 30.0851 8.88258 30.4564 8.6406C30.8277 8.39861 31.2768 8.30582 31.7136 8.38082C31.9376 8.42858 32.1496 8.52134 32.3367 8.65346C32.5237 8.78559 32.682 8.95434 32.802 9.14947C32.9219 9.34461 33.0009 9.56207 33.0343 9.78867C33.0677 10.0153 33.0547 10.2463 32.9961 10.4677L30.3748 18.5621L27.163 17.0265Z" fill="#E3CED4"/>
<path d="M14.0884 20.0707L9.11589 17.1558C8.77181 16.9571 8.36853 16.8864 7.97737 16.9563C7.58622 17.0262 7.23237 17.2322 6.97839 17.5378L5.16377 11.9358C5.05599 11.5059 4.78978 11.1326 4.41846 10.8906C4.04713 10.6486 3.59809 10.5558 3.16127 10.6308C2.93726 10.6786 2.72529 10.7713 2.5382 10.9035C2.35111 11.0356 2.19281 11.2043 2.07289 11.3995C1.95297 11.5946 1.87392 11.8121 1.84056 12.0387C1.80719 12.2653 1.82019 12.4963 1.87877 12.7177L4.32564 21.8471C4.43789 22.2741 4.67485 22.6579 5.00627 22.9496L8.80877 26.3302C9.04601 26.5414 9.23584 26.8005 9.36576 27.0904C9.49567 27.3803 9.56273 27.6944 9.56252 28.0121V29.8121H16.3125V23.9531C16.3126 23.1682 16.1073 22.3969 15.7172 21.7159C15.327 21.0348 14.7655 20.4677 14.0884 20.0707Z" fill="#F6DBE3"/>
<path d="M32.8387 10.6308C32.4019 10.5558 31.9529 10.6486 31.5816 10.8906C31.2102 11.1326 30.944 11.5059 30.8362 11.9358L29.0194 17.5378C28.7654 17.2322 28.4116 17.0262 28.0204 16.9563C27.6292 16.8864 27.226 16.9571 26.8819 17.1558L21.9094 20.0707C21.2327 20.4679 20.6716 21.0352 20.2819 21.7163C19.8921 22.3973 19.6872 23.1684 19.6875 23.9531V29.8121H26.4375V28.0121C26.4373 27.6944 26.5043 27.3803 26.6343 27.0904C26.7642 26.8005 26.954 26.5414 27.1912 26.3302L30.9937 22.9496C31.3252 22.6579 31.5621 22.2741 31.6744 21.8471L34.1212 12.7177C34.1798 12.4963 34.1928 12.2653 34.1595 12.0387C34.1261 11.8121 34.0471 11.5946 33.9271 11.3995C33.8072 11.2043 33.6489 11.0356 33.4618 10.9035C33.2747 10.7713 33.0628 10.6786 32.8387 10.6308Z" fill="#F6DBE3"/>
<path d="M19.125 29.812V34.312H27V29.812H26.4375H19.6875H19.125Z" fill="#C7C7D7"/>
<path d="M16.875 29.812H16.3125H9.5625H9V34.312H16.875V29.812Z" fill="#C7C7D7"/>
<path d="M25.5602 10.4399L25.1608 10.8392L18.0002 17.9999L10.8396 10.8392L10.4402 10.4399C9.95373 9.97344 9.56529 9.41458 9.29765 8.79606C9.03001 8.17753 8.88857 7.51179 8.88162 6.83789C8.87466 6.16398 9.00234 5.49546 9.25715 4.87155C9.51196 4.24763 9.88879 3.68087 10.3655 3.20451C10.8423 2.72815 11.4093 2.35177 12.0334 2.09744C12.6576 1.84312 13.3262 1.71597 14.0001 1.72346C14.674 1.73094 15.3396 1.87291 15.9579 2.14103C16.5762 2.40915 17.1348 2.79803 17.6008 3.28486L18.0002 3.68424L18.3996 3.28486C18.8656 2.79803 19.4242 2.40915 20.0425 2.14103C20.6608 1.87291 21.3264 1.73094 22.0003 1.72346C22.6742 1.71597 23.3428 1.84312 23.967 2.09744C24.5911 2.35177 25.1581 2.72815 25.6349 3.20451C26.1116 3.68087 26.4884 4.24763 26.7432 4.87155C26.9981 5.49546 27.1257 6.16398 27.1188 6.83789C27.1118 7.51179 26.9704 8.17753 26.7027 8.79606C26.4351 9.41458 26.0467 9.97344 25.5602 10.4399Z" fill="#2967F0"/>
<path d="M25.56 3.28489C25.0248 2.74403 24.3734 2.33228 23.6553 2.0809C22.9371 1.82953 22.1711 1.74516 21.4155 1.8342C22.3629 1.9392 23.2613 2.30968 24.0073 2.90297C24.7533 3.49627 25.3165 4.28824 25.6321 5.18765C25.9476 6.08705 26.0027 7.05731 25.7909 7.98664C25.5791 8.91598 25.1091 9.76658 24.435 10.4405L24.0356 10.8398L17.4375 17.4374L18 17.9999L25.1606 10.8393L25.56 10.4399C26.508 9.49067 27.0405 8.20396 27.0405 6.86239C27.0405 5.52082 26.508 4.23411 25.56 3.28489Z" fill="#2967F0" fill-opacity="0.8"/>
<path d="M19.125 12.3745V10.1245H21.375V7.87451H19.125V5.62451H16.875V7.87451H14.625V10.1245H16.875V12.3745H19.125Z" fill="#F1F2F2"/>
<path d="M28.572 18.9558L24.8123 21.0371C24.7048 21.0993 24.6251 21.2002 24.5895 21.3191C24.5538 21.4381 24.5649 21.5662 24.6205 21.6772C24.6501 21.7366 24.6917 21.7893 24.7425 21.8321C24.7933 21.8748 24.8523 21.9067 24.9159 21.9258C24.9795 21.9448 25.0463 21.9507 25.1123 21.943C25.1782 21.9352 25.2419 21.9141 25.2994 21.8808L28.572 20.0808C28.9137 19.8828 29.1751 19.5711 29.3106 19.2002C29.4462 18.8292 29.4474 18.4225 29.3139 18.0508C29.1838 18.432 28.9203 18.7534 28.572 18.9558Z" fill="#E3CED4"/>
<path d="M7.42857 18.9563L11.1883 21.0376C11.2958 21.0998 11.3755 21.2007 11.4111 21.3196C11.4467 21.4386 11.4357 21.5666 11.3801 21.6777C11.3505 21.7371 11.3089 21.7898 11.2581 21.8325C11.2073 21.8753 11.1483 21.9072 11.0847 21.9263C11.0211 21.9453 10.9542 21.9512 10.8883 21.9435C10.8223 21.9357 10.7587 21.9146 10.7012 21.8813L7.42857 20.0813C7.08689 19.8833 6.82551 19.5716 6.68994 19.2007C6.55437 18.8297 6.5532 18.423 6.68663 18.0513C6.81678 18.4325 7.08026 18.7539 7.42857 18.9563Z" fill="#E3CED4"/>
</svg>
