<svg width="32" height="32" viewBox="0 0 32 32" fill="none" xmlns="http://www.w3.org/2000/svg">
<g clip-path="url(#clip0_1817_3027)">
<path d="M27.4545 4.7959H23.875V14.1027H27.4545V4.7959Z" fill="#7989DC"/>
<path d="M28.0806 1.8125H23.1468C22.7514 1.8125 22.4309 2.13302 22.4309 2.52841V4.50911C22.4309 4.9045 22.7514 5.22502 23.1468 5.22502H28.0806C28.476 5.22502 28.7966 4.9045 28.7966 4.50911V2.52841C28.7966 2.13302 28.476 1.8125 28.0806 1.8125Z" fill="#2967F0"/>
<path d="M3.0061 17.4963V31.9994H28.7311V17.4963C23.678 12.4432 20.8561 9.62131 15.8686 4.63379C10.8811 9.68689 8.05921 12.5088 3.0061 17.4963Z" fill="#DEDEE7"/>
<rect x="1.68164" y="31.2842" width="27.2045" height="2.14773" rx="1.07386" fill="#C7C7D7"/>
<path d="M28.9044 17.6584C23.8513 12.6053 21.0294 9.78342 16.0419 4.7959C13.4825 7.28963 11.5137 9.25838 9.545 11.2271C7.57625 13.1959 5.6075 15.1646 3.11377 17.6584V21.0052C8.16687 15.9521 10.9888 12.7365 15.9763 7.74896C21.0294 12.8021 23.8513 15.624 28.8388 20.6115V21.0052V17.6584L28.9044 17.6584Z" fill="#C7C7D7"/>
<path d="M13.6006 31.0771H5.84863V24.0628C5.84863 22.0673 7.62239 20.4951 9.72461 20.4951C11.8925 20.4951 13.6006 22.1278 13.6006 24.0628V31.0771Z" fill="#9FA8B0"/>
<path d="M25.9747 20.5156H15.8684V29.375H25.9747V20.5156Z" fill="#9FA8B0"/>
<path d="M20.3964 21.5654H16.9183V28.3248H20.3964V21.5654Z" fill="white"/>
<path d="M24.9239 21.5654H21.4458V28.3248H24.9239V21.5654Z" fill="white"/>
<path d="M2.03979 17.682C2.59169 17.406 10.722 8.57668 15.4766 3.55732C15.7607 3.25741 16.2375 3.26209 16.5183 3.56507L29.6023 17.682" stroke="#2967F0" stroke-width="3.57955" stroke-linecap="round"/>
</g>
<defs>
<clipPath id="clip0_1817_3027">
<rect width="31.5" height="31.5" fill="white" transform="translate(0.25 0.5)"/>
</clipPath>
</defs>
</svg>
