<svg width="36" height="36" viewBox="0 0 36 36" fill="none" xmlns="http://www.w3.org/2000/svg">
<g clip-path="url(#clip0_1817_5023)">
<rect x="35.1818" y="24.5459" width="0.818182" height="3.27273" fill="#DEDEE7"/>
<path d="M24.6243 23.6318H5.57474C4.92805 23.6318 4.39893 24.1507 4.39893 24.7848V25.6165H25.8001V24.7848C25.8001 24.1507 25.271 23.6318 24.6243 23.6318Z" fill="#DEDEE7"/>
<path d="M12.6492 23.6318H5.57474C4.92805 23.6318 4.39893 24.1507 4.39893 24.7848V25.6165H12.4301C12.5635 25.5633 12.6492 25.5432 12.6492 25.5432C11.458 24.6365 12.6492 23.6318 12.6492 23.6318Z" fill="#C7C7D7"/>
<path d="M10.2366 11.9854L16.7368 4.38012L25.6766 11.7273L19.1763 19.3325L10.2366 11.9854Z" fill="#7989DC"/>
<path d="M20.3414 7.52604C20.4195 7.553 20.4989 7.54327 20.5653 7.51003L16.7489 4.37305L10.2445 11.9819L13.9499 15.0277C14.0026 14.9496 14.0157 14.8465 13.9698 14.7523C13.4881 13.7638 14.1165 13.1218 14.1165 13.1218C14.1165 13.1218 17.4264 9.41971 18.4159 8.11759C19.0597 7.27036 19.8605 7.36005 20.3414 7.52604Z" fill="#2967F0"/>
<path d="M17.9613 2.93551C18.9433 3.74268 25.9368 9.49127 26.9253 10.3037C26.9253 10.3037 26.3389 9.16597 27.1948 8.16463C25.491 6.76423 21.0662 3.12715 20.0621 2.30176C19.2062 3.30309 17.9613 2.93551 17.9613 2.93551Z" fill="#7989DC"/>
<path d="M22.0261 6.03481C21.9923 5.25836 22.5397 5.02045 22.8746 4.94753C22.9687 4.927 23.0399 4.86029 23.0727 4.77641C21.7407 3.68155 20.53 2.68642 20.0621 2.30176C19.2062 3.30302 17.9613 2.93551 17.9613 2.93551C18.4129 3.30669 20.1358 4.72287 21.9613 6.22346C22.0045 6.17214 22.0292 6.10589 22.0261 6.03481Z" fill="#2967F0"/>
<path d="M9.03462 13.3779C10.0166 14.1851 17.0101 19.9337 17.9987 20.7462C17.9987 20.7462 16.7538 20.3786 15.8978 21.38C14.1941 19.9795 9.76926 16.3424 8.76514 15.5171C9.62109 14.5158 9.03462 13.3779 9.03462 13.3779Z" fill="#7989DC"/>
<path d="M9.03462 13.3779C9.03462 13.3779 9.62109 14.5157 8.76514 15.517C9.21686 15.8884 10.361 16.8287 11.6381 17.8785C11.709 17.82 11.7497 17.7295 11.737 17.6331C11.6387 16.8902 12.2128 16.6916 12.5789 16.64C12.6804 16.6257 12.7607 16.5586 12.7977 16.4712C11.062 15.0444 9.46658 13.733 9.03462 13.3779Z" fill="#2967F0"/>
<path d="M25.8652 15.6544L24.8611 15.5908C24.5789 15.9209 23.4043 17.295 22.9326 17.8468L23.1719 18.8052C23.5129 20.1713 24.548 21.2647 25.9083 21.7109C26.9005 22.0364 28.0659 22.6681 29.3461 23.5707C29.391 23.4365 29.4613 23.308 29.5595 23.1931L31.3868 21.0554C31.485 20.9405 31.6017 20.8502 31.7287 20.7835C30.5987 19.7049 29.7609 18.6901 29.2608 17.789C28.5753 16.5536 27.2966 15.7451 25.8652 15.6544Z" fill="#C7C7D7"/>
<path d="M27.3306 19.7858C26.9831 19.6614 26.7137 19.4827 26.5051 19.2846C25.9204 18.7296 25.879 17.8214 26.3759 17.1897L27.3052 16.0083C26.857 15.8098 26.371 15.6865 25.8652 15.6544L24.8611 15.5908C24.5789 15.9209 23.4043 17.295 22.9326 17.8468L23.1719 18.8052C23.5129 20.1713 24.548 21.2647 25.9083 21.7109C26.9005 22.0364 28.0659 22.6681 29.3461 23.5707C29.391 23.4365 29.4613 23.308 29.5595 23.1931L30.5674 22.0141C29.8594 21.3956 28.3605 20.1547 27.3306 19.7858Z" fill="#DEDEE7"/>
<path d="M36.0002 24.6633L34.2818 22.8633L33.2154 21.9883C33.1708 22.1272 33.0987 22.26 32.9974 22.3786L31.17 24.5163C31.0687 24.6349 30.9479 24.7277 30.8162 24.795L35.0822 28.3016C35.6371 27.1218 35.7033 25.9599 36.0002 24.6633Z" fill="#C7C7D7"/>
<path d="M33.8985 25.0006C33.4179 24.6055 33.3432 23.9045 33.7368 23.4257C33.7414 23.4201 33.7455 23.4151 33.7491 23.4109L34.2678 22.8534L33.2154 21.9883C33.1708 22.1272 33.0987 22.26 32.9974 22.3786L31.17 24.5163C31.0687 24.6349 30.9479 24.7277 30.8162 24.795L35.0822 28.3016C35.3484 27.7356 35.586 27.154 35.7948 26.5593L33.8985 25.0006Z" fill="#C7C7D7"/>
<path d="M35.6094 28.724L34.4768 27.8049L35.7657 26.541L36 26.6942V26.7325V29.0647L35.6094 28.724Z" fill="#DEDEE7"/>
<path d="M27.098 11.6412C26.7401 12.0598 26.1039 12.1147 25.6771 11.7638L16.713 4.39552C16.2861 4.04456 16.2301 3.42076 16.588 3.00217C16.9459 2.58349 17.582 2.52865 18.0089 2.87954L26.9729 10.2478C27.3999 10.5987 27.4559 11.2225 27.098 11.6412Z" fill="#2967F0"/>
<path d="M18.0089 2.87954C17.582 2.52865 16.9458 2.58349 16.588 3.00217C16.2301 3.42076 16.2861 4.04463 16.713 4.39552L20.5236 7.52775C20.6305 7.49382 20.7142 7.40037 20.7211 7.27889C20.7614 6.569 21.4022 6.37475 21.7815 6.32213C21.881 6.30835 21.9611 6.24469 22 6.16013L18.0089 2.87954Z" fill="#2967F0"/>
<path d="M29.0643 8.05531C28.5814 8.62028 27.7228 8.69443 27.1466 8.22076L20.0139 2.35789C19.4377 1.8843 19.3622 1.04235 19.8452 0.477384C20.3281 -0.0875869 21.1867 -0.161732 21.7629 0.311937L28.8955 6.17488C29.4718 6.64848 29.5473 7.49034 29.0643 8.05531Z" fill="#2967F0"/>
<path d="M21.7629 0.311905C21.1867 -0.161687 20.3281 -0.0876185 19.8452 0.477352C19.3622 1.04232 19.4377 1.88426 20.0139 2.35786L23.0367 4.84247C23.0767 4.78878 23.0978 4.72114 23.092 4.65067C22.9729 3.1651 24.1591 2.91968 24.6632 2.88215C24.721 2.87786 24.7734 2.85557 24.8164 2.8218L21.7629 0.311905Z" fill="#7989DC"/>
<path d="M19.3719 20.6793C19.7297 20.2606 19.6738 19.6368 19.2469 19.2859L10.2828 11.9176C9.85594 11.5667 9.21972 11.6216 8.86189 12.0403C8.50406 12.4588 8.55999 13.0827 8.98695 13.4336L17.951 20.8019C18.3779 21.1529 19.014 21.0979 19.3719 20.6793Z" fill="#2967F0"/>
<path d="M10.2828 11.9176C9.85594 11.5667 9.21972 11.6216 8.86189 12.0403C8.50406 12.4588 8.55999 13.0827 8.98695 13.4336L12.7608 16.5357C12.8041 16.4811 12.8269 16.4108 12.8195 16.3372C12.73 15.4446 13.3104 15.2055 13.7497 15.1503C13.8652 15.1359 13.9512 15.0573 13.9838 14.9597L10.2828 11.9176Z" fill="#2967F0"/>
<path d="M16.115 23.2037C16.5979 22.6387 16.5224 21.7968 15.9463 21.3232L8.81356 15.4603C8.23741 14.9868 7.3788 15.0608 6.89584 15.6258C6.41287 16.1908 6.48841 17.0327 7.06456 17.5063L14.1973 23.3692C14.7735 23.8428 15.632 23.7688 16.115 23.2037Z" fill="#2967F0"/>
<path d="M8.81356 15.4603C8.23741 14.9868 7.3788 15.0608 6.89584 15.6258C6.41287 16.1908 6.48841 17.0326 7.06456 17.5063L9.97258 19.8966C9.99609 19.8507 10.0074 19.7987 10.0016 19.7451C9.84987 18.3585 10.9448 18.0228 11.4964 17.9416C11.5774 17.9296 11.6452 17.8849 11.6887 17.8236L8.81356 15.4603Z" fill="#7989DC"/>
<path d="M25.6525 25.543H4.54542C2.64152 25.543 1.08374 27.0705 1.08374 28.9375V29.7745C2.03772 31.4053 3.23494 32.8815 4.62572 34.1572H29.1141V28.9374C29.1142 27.0705 27.5564 25.543 25.6525 25.543Z" fill="#DEDEE7"/>
<path d="M11.77 34.0108C10.8912 33.6633 10.8912 32.6731 10.8912 32.6731C10.8912 32.6731 10.8912 30.088 10.8912 28.0199C10.8912 25.9518 12.6487 25.543 12.6487 25.543H4.54542C2.64152 25.543 1.08374 27.0705 1.08374 28.9375V29.7745C2.03772 31.4053 3.23494 32.8815 4.62572 34.1572H11.6322C11.711 34.0645 11.77 34.0108 11.77 34.0108Z" fill="#C7C7D7"/>
<path d="M1.08374 33.894V29.7578L4.52066 34.0089H1.08374V33.9323V33.894Z" fill="#C7C7D7"/>
<path d="M30.2 34.6576C30.0579 34.2803 29.6889 34.0107 29.2546 34.0107H4.4668C5.23948 34.7358 6.07402 35.398 6.96192 35.9889H28.4302C29.0468 35.5785 29.6377 35.1339 30.2 34.6576Z" fill="#8B939A"/>
<path d="M11.7703 34.0107H1.05799C-0.327213 34.381 -0.327298 35.5952 0.91146 36L11.7703 35.9889C10.5596 35.1111 11.7703 34.0107 11.7703 34.0107Z" fill="#ABABBB"/>
<path d="M20.7798 17.3589L21.7155 18.1281C22.0778 18.4259 22.6228 18.3789 22.9265 18.0236L25.0373 15.5544C25.3411 15.199 25.2932 14.6646 24.9308 14.3668L23.9951 13.5977L20.7798 17.3589Z" fill="#2967F0"/>
<path d="M32.91 20.8201C32.4178 20.4156 31.6844 20.4789 31.2719 20.9615L29.4446 23.0992C29.032 23.5818 29.0965 24.301 29.5887 24.7055C30.0809 25.11 30.8143 25.0468 31.2268 24.5641L33.0541 22.4264C33.4666 21.9439 33.4021 21.2247 32.91 20.8201Z" fill="#DEDEE7"/>
<path d="M31.093 22.9117C30.7126 22.599 30.5643 22.1164 30.6651 21.6719L29.4446 23.0996C29.032 23.5823 29.0965 24.3014 29.5887 24.7059C30.0809 25.1105 30.8143 25.0472 31.2268 24.5646L32.5084 23.0653C32.0621 23.2914 31.5021 23.248 31.093 22.9117Z" fill="#C7C7D7"/>
<path d="M24.0522 13.6445C22.218 14.0111 20.8847 15.5708 20.8369 17.4058L22.5555 15.6235L24.0522 13.6445Z" fill="#2967F0"/>
<rect x="10.6365" y="33.5459" width="20.4545" height="2.45455" rx="0.774193" fill="#8B939A"/>
</g>
<defs>
<clipPath id="clip0_1817_5023">
<rect width="36" height="36" fill="white"/>
</clipPath>
</defs>
</svg>
