<svg width="36" height="36" viewBox="0 0 36 36" fill="none" xmlns="http://www.w3.org/2000/svg">
<path d="M30.1071 27.8571V28.9821C30.1071 29.6009 30.6133 30.1071 31.2321 30.1071H30.9958C30.034 30.1071 29.0777 29.9496 28.1721 29.6515C26.8558 29.2127 25.6577 28.4702 24.679 27.4915L24.5327 27.3452V27.3396C25.1852 26.8615 25.6071 26.0852 25.6071 25.2134V22.3446C25.6071 22.2265 25.6015 22.1084 25.5902 21.9902H25.5958L27.1315 24.4484C27.604 25.2077 28.279 25.8209 29.0833 26.2202C29.7527 26.5521 30.484 26.7265 31.2321 26.7321C30.6133 26.7321 30.1071 27.2384 30.1071 27.8571Z" fill="#2967F0"/>
<path d="M33.4822 10.9819V11.0888C33.4822 13.4232 32.5203 15.6057 30.8947 17.1694H30.1072H29.5447C29.0778 17.1694 28.6559 17.3607 28.3522 17.6644C28.0484 17.9682 27.8572 18.3901 27.8572 18.8569C27.8572 18.9244 27.8628 18.9976 27.8741 19.0651H27.8684L25.1966 20.2294H25.1909C24.6622 18.9244 23.6553 17.8501 22.3616 17.2482C22.7666 17.0851 23.1434 16.8769 23.4978 16.6238L23.5147 16.6182L27.3791 14.9644C28.9822 14.2782 30.0453 12.7257 30.1016 10.9819H30.1072H33.4822Z" fill="#2967F0"/>
<path d="M23.9196 33.4817L23.2108 33.718C21.4446 34.3086 19.5939 34.6067 17.7321 34.6067C15.8702 34.6067 14.0196 34.3086 12.2533 33.718L11.5446 33.4817C12.4389 31.693 12.9902 29.7524 13.1646 27.7724C13.4064 27.7105 13.6427 27.6092 13.8621 27.4799L17.7321 25.1567L21.6021 27.4799C21.8214 27.6092 22.0577 27.7105 22.2996 27.7724C22.4739 29.7524 23.0252 31.693 23.9196 33.4817Z" fill="#2967F0"/>
<path d="M9.85706 22.3446V25.2134C9.85706 26.0852 10.2789 26.8615 10.9314 27.3396C9.73893 28.4534 8.30456 29.2634 6.74081 29.7134C5.92518 29.944 5.08143 30.0734 4.23206 30.1015C4.13081 30.1071 4.02393 30.1071 3.92268 30.1071H3.10706C3.72581 30.1071 4.23206 29.6009 4.23206 28.9821V27.8571C4.23206 27.244 3.73706 26.7434 3.12393 26.7321C3.49518 26.7321 3.86643 26.704 4.23206 26.6421C4.58643 26.5859 4.94081 26.4959 5.28393 26.3834C6.03206 26.1359 6.72956 25.7534 7.34268 25.2696C7.95581 24.7859 8.48456 24.2009 8.90643 23.5259L9.86831 21.9902H9.87393C9.86268 22.1084 9.85706 22.2265 9.85706 22.3446Z" fill="#2967F0"/>
<path d="M25.6071 22.3444V25.2132C25.6071 26.0851 25.1852 26.8613 24.5327 27.3394C24.0939 27.6657 23.5539 27.8569 22.9633 27.8569C22.7383 27.8569 22.5189 27.8288 22.2996 27.7726C22.0577 27.7107 21.8214 27.6094 21.6021 27.4801L17.7321 25.1569L13.8621 27.4801C13.6427 27.6094 13.4064 27.7107 13.1646 27.7726C12.9452 27.8288 12.7258 27.8569 12.5008 27.8569C11.9102 27.8569 11.3646 27.6657 10.9314 27.3394C10.2789 26.8613 9.85706 26.0851 9.85706 25.2132V22.3444C9.85706 22.2263 9.86268 22.1082 9.87393 21.9901C9.90768 21.3713 10.0483 20.7807 10.2733 20.2294C10.8021 18.9244 11.8089 17.8501 13.1027 17.2482C13.5021 17.0569 13.9296 16.9163 14.3796 16.8263L15.4821 16.6069L15.8139 16.9388C16.3202 17.4451 17.0121 17.7319 17.7321 17.7319C18.4521 17.7319 19.1439 17.4451 19.6502 16.9388L19.9821 16.6069L21.0846 16.8263C21.5346 16.9163 21.9621 17.0569 22.3614 17.2482C23.6552 17.8501 24.6621 18.9244 25.1908 20.2294C25.4158 20.7807 25.5564 21.3713 25.5902 21.9901C25.6014 22.1082 25.6071 22.2263 25.6071 22.3444Z" fill="#7989DC"/>
<path fill-rule="evenodd" clip-rule="evenodd" d="M23.3169 27.8332C23.7693 27.7731 24.1831 27.5988 24.5326 27.3389C25.1851 26.8608 25.607 26.0846 25.607 25.2127V22.3439C25.607 22.2258 25.6013 22.1077 25.5901 21.9896C25.5563 21.3708 25.4157 20.7802 25.1907 20.2289C24.662 18.9239 23.6551 17.8496 22.3613 17.2477C21.962 17.0564 21.5345 16.9158 21.0845 16.8258L19.982 16.6064L19.6501 16.9383C19.4707 17.1177 19.268 17.2695 19.0491 17.3908C24.5827 19.7981 24.2993 25.0506 23.3169 27.8332Z" fill="#6775BD"/>
<path d="M13.1027 17.2482C11.8089 17.8501 10.8021 18.9244 10.2733 20.2294H10.2677L7.03893 18.8176C3.96768 17.4732 1.98206 14.4413 1.98206 11.0888V10.9819H5.35706H5.36268C5.41893 12.7257 6.48206 14.2782 8.08518 14.9644L11.9496 16.6182L11.9664 16.6238C12.3208 16.8769 12.6977 17.0851 13.1027 17.2482Z" fill="#2967F0"/>
<path d="M33.4821 20.449V22.7946C33.4821 23.4134 32.9758 23.9196 32.3571 23.9196H31.2321V20.5446H32.9196C33.1164 20.5446 33.3077 20.5109 33.4821 20.4434V20.449Z" fill="#AAB2BD"/>
<path d="M31.7142 24.0161V30.3781C31.7142 32.0563 31.5213 33.4294 31.2856 33.4294H30.8571V24.2755V23.5723C30.9321 23.5723 31.6478 23.7553 31.7142 23.5723V24.0161Z" fill="#28CF89"/>
<path d="M29.5446 20.5446H31.2321V23.9196H30.1071C29.4883 23.9196 28.9821 23.4134 28.9821 22.7946V20.449V20.4434C29.1564 20.5109 29.3477 20.5446 29.5446 20.5446Z" fill="#AAB2BD"/>
<path d="M32.3571 17.1694H32.9196C33.8533 17.1694 34.6071 17.9232 34.6071 18.8569C34.6071 19.3238 34.4158 19.7457 34.1121 20.0494C33.9377 20.2238 33.7239 20.3644 33.4821 20.4432C33.3077 20.5107 33.1164 20.5444 32.9196 20.5444H31.2321H29.5446C29.3477 20.5444 29.1564 20.5107 28.9821 20.4432C28.3858 20.2407 27.9471 19.7063 27.8739 19.0651C27.8627 18.9976 27.8571 18.9244 27.8571 18.8569C27.8571 18.3901 28.0483 17.9682 28.3521 17.6644C28.6558 17.3607 29.0777 17.1694 29.5446 17.1694H30.1071H30.8946H32.3571Z" fill="#FFB8AC"/>
<path d="M25.6071 13.7944C25.2189 14.9532 24.4764 15.9376 23.5146 16.6182L23.4977 16.6238C23.1433 16.8769 22.7664 17.0851 22.3614 17.2482C21.9621 17.0569 21.5346 16.9163 21.0846 16.8263L19.9821 16.6069L19.5489 14.8801C20.2577 14.4469 20.8483 13.8619 21.2983 13.1813C21.8946 12.2757 22.2321 11.2013 22.2321 10.0707V7.60693C22.2321 6.98818 21.7258 6.48193 21.1071 6.48193H14.3571C13.7383 6.48193 13.2321 6.98818 13.2321 7.60693V10.0707C13.2321 12.0507 14.2614 13.8619 15.9152 14.8801L15.4821 16.6069L14.3796 16.8263C13.9296 16.9163 13.5021 17.0569 13.1027 17.2482C12.6977 17.0851 12.3208 16.8769 11.9664 16.6238L11.9496 16.6182C11.6458 16.4044 11.3646 16.1569 11.1114 15.8869C10.5546 15.3019 10.1214 14.5932 9.85706 13.7944C10.5883 12.6919 10.9821 11.4038 10.9821 10.0763V7.60693C10.9821 4.50193 13.5021 1.98193 16.6071 1.98193H18.8571C21.9621 1.98193 24.4821 4.50193 24.4821 7.60693V10.0763C24.4821 11.4038 24.8758 12.6919 25.6071 13.7944Z" fill="#7F7369"/>
<path d="M5.35706 22.7944V23.9194C5.35706 24.2288 5.10393 24.4819 4.79456 24.4819H4.23206H1.98206H1.41956C1.11018 24.4819 0.857056 24.2288 0.857056 23.9194V22.7944C0.857056 22.4851 1.11018 22.2319 1.41956 22.2319H4.79456C5.10393 22.2319 5.35706 22.4851 5.35706 22.7944Z" fill="#AAB2BD"/>
<path d="M5.35706 32.9194V34.0444C5.35706 34.3538 5.10393 34.6069 4.79456 34.6069H1.41956C1.11018 34.6069 0.857056 34.3538 0.857056 34.0444V32.9194C0.857056 32.6101 1.11018 32.3569 1.41956 32.3569H1.98206H4.23206H4.79456C5.10393 32.3569 5.35706 32.6101 5.35706 32.9194Z" fill="#AAB2BD"/>
<path d="M4.23206 30.1067V32.3567H1.98206V30.1067H3.10706H3.92268C4.02393 30.1067 4.13081 30.1067 4.23206 30.1011V30.1067Z" fill="#CCD1D9"/>
<path d="M4.23206 24.4819V26.6419C3.86643 26.7038 3.49518 26.7319 3.12393 26.7319C3.11831 26.7319 3.11268 26.7319 3.10706 26.7319H1.98206V24.4819H4.23206Z" fill="#CCD1D9"/>
<path d="M33.4821 27.2944V29.5444C33.4821 29.8538 33.2289 30.1069 32.9196 30.1069H31.2321C30.6133 30.1069 30.1071 29.6007 30.1071 28.9819V27.8569C30.1071 27.2382 30.6133 26.7319 31.2321 26.7319H31.2546H32.9196C33.2289 26.7319 33.4821 26.9851 33.4821 27.2944Z" fill="#F0D0B4"/>
<path d="M3.10706 26.7319H3.12393C3.73706 26.7432 4.23206 27.2438 4.23206 27.8569V28.9819C4.23206 29.6007 3.72581 30.1069 3.10706 30.1069H1.98206H1.41956C1.11018 30.1069 0.857056 29.8538 0.857056 29.5444V27.2944C0.857056 26.9851 1.11018 26.7319 1.41956 26.7319H1.98206H3.10706Z" fill="#F0D0B4"/>
<path d="M28.9821 7.04443V1.41943C28.9821 1.11006 29.2352 0.856934 29.5446 0.856934H34.0446C34.3539 0.856934 34.6071 1.11006 34.6071 1.41943V7.04443C34.6071 7.35381 34.3539 7.60693 34.0446 7.60693H31.7946H29.5446C29.2352 7.60693 28.9821 7.35381 28.9821 7.04443Z" fill="#C5C6C9"/>
<path d="M30.1071 10.8244V9.29443C30.1071 8.82756 30.2983 8.40568 30.6021 8.10193C30.9058 7.79818 31.3277 7.60693 31.7946 7.60693C32.7283 7.60693 33.4821 8.36068 33.4821 9.29443V10.9819H30.1071H30.1014C30.1071 10.9313 30.1071 10.8751 30.1071 10.8244Z" fill="#F0D0B4"/>
<path d="M19.5489 14.8799L19.9821 16.6068L19.6502 16.9386C19.1439 17.4449 18.4521 17.7318 17.7321 17.7318C17.0121 17.7318 16.3202 17.4449 15.8139 16.9386L15.4821 16.6068L15.9152 14.8799C16.1514 15.0261 16.3933 15.1499 16.6521 15.2624C16.9952 15.4086 17.3608 15.4818 17.7321 15.4818C18.1033 15.4818 18.4689 15.4086 18.8121 15.2624C19.0708 15.1499 19.3127 15.0261 19.5489 14.8799Z" fill="#F0D0B4"/>
<path d="M22.2321 7.60693V10.0707C22.2321 11.2013 21.8946 12.2757 21.2983 13.1813C20.8483 13.8619 20.2577 14.4469 19.5489 14.8801C19.3127 15.0263 19.0708 15.1501 18.8121 15.2626C18.4689 15.4088 18.1033 15.4819 17.7321 15.4819C17.3608 15.4819 16.9952 15.4088 16.6521 15.2626C16.3933 15.1501 16.1514 15.0263 15.9152 14.8801C14.2614 13.8619 13.2321 12.0507 13.2321 10.0707V7.60693C13.2321 6.98818 13.7383 6.48193 14.3571 6.48193H21.1071C21.7258 6.48193 22.2321 6.98818 22.2321 7.60693Z" fill="#F0D0B4"/>
<path d="M18.8571 23.8463C18.8571 24.0488 18.8008 24.2401 18.7052 24.4088L16.6071 23.3569V21.1069C16.6071 20.7976 16.7308 20.5163 16.9389 20.3138C17.1414 20.1057 17.4227 19.9819 17.7321 19.9819C18.3508 19.9819 18.8571 20.4882 18.8571 21.1069V23.3569V23.8463Z" fill="#F0D0B4"/>
<path d="M5.35706 10.8244C5.35706 10.8751 5.35706 10.9313 5.36268 10.9819H5.35706H1.98206V9.29443C1.98206 8.36068 2.73581 7.60693 3.66956 7.60693C4.13643 7.60693 4.55831 7.79818 4.86206 8.10193C5.16581 8.40568 5.35706 8.82756 5.35706 9.29443V10.8244Z" fill="#F0D0B4"/>
<path d="M4.23218 0.857422C6.09405 0.857422 7.60718 2.37055 7.60718 4.23242C7.60718 6.0943 6.09405 7.60742 4.23218 7.60742C2.3703 7.60742 0.857178 6.0943 0.857178 4.23242C0.857178 2.37055 2.3703 0.857422 4.23218 0.857422Z" fill="#ABABBB"/>
<path d="M4.23206 5.35693C4.85338 5.35693 5.35706 4.85325 5.35706 4.23193C5.35706 3.61061 4.85338 3.10693 4.23206 3.10693C3.61074 3.10693 3.10706 3.61061 3.10706 4.23193C3.10706 4.85325 3.61074 5.35693 4.23206 5.35693Z" fill="#69D6F4"/>
<path fill-rule="evenodd" clip-rule="evenodd" d="M17.9999 6.48145H21.107C21.7258 6.48145 22.232 6.9877 22.232 7.60645V10.0702C22.232 11.2008 21.8945 12.2752 21.2983 13.1808C20.8483 13.8614 20.2576 14.4464 19.5489 14.8796L19.982 16.6064L21.0845 16.8258C21.5345 16.9158 21.962 17.0564 22.3614 17.2477C22.7664 17.0846 23.1433 16.8764 23.4976 16.6233L23.5145 16.6177C24.4764 15.9371 25.2189 14.9527 25.607 13.7939C24.8758 12.6914 24.482 11.4033 24.482 10.0758V7.60645C24.482 4.50145 21.962 1.98145 18.857 1.98145H17.9999V6.48145Z" fill="#4C4846"/>
<rect x="30" y="1.71436" width="3.42857" height="0.857143" rx="0.428571" fill="#656D78"/>
<rect x="30" y="3.42871" width="3.42857" height="0.857143" rx="0.428571" fill="#656D78"/>
</svg>
