<svg width="42" height="42" viewBox="0 0 42 42" fill="none" xmlns="http://www.w3.org/2000/svg">
<g clip-path="url(#clip0_1817_4795)">
<path d="M37.2774 14.6299H29.0181V27.9213H42.5503V21.9388L40.9721 17.0958C40.4963 15.6353 38.9897 14.6299 37.2774 14.6299Z" fill="#2967F0"/>
<path d="M40.5742 21.8773L39.1676 17.5603C38.9252 16.8182 38.1477 16.2988 37.2769 16.2988H30.8975V21.8773H40.5742Z" fill="#84DBFF"/>
<path d="M40.5767 21.8754H30.895V16.2969L40.5767 21.8754Z" fill="#C7C7D7"/>
<path d="M40.5742 21.8773L39.1676 17.5603C38.9252 16.8182 38.1477 16.2988 37.2769 16.2988H30.8975L40.5742 21.8773Z" fill="white"/>
<path d="M18.0644 8H26.9356C27.5232 8 28 8.99542 28 10.2236V28H17V10.2236C17 8.99549 17.4765 8 18.0644 8Z" fill="#C7C7D7"/>
<path d="M5.74171 8H20.2583C21.2197 8 22 8.99542 22 10.2236V28H4V10.2236C4 8.99549 4.77969 8 5.74171 8Z" fill="#C7C7D7"/>
<path d="M27 8V13.9579L25.9172 13.086L24.7822 14L23.6481 13.086L22.514 14L21.378 13.086L20.229 14L19.0958 13.086L18 13.9684V8H27Z" fill="#F2F2F2"/>
<path d="M16 8V13.9579L14.9172 13.086L13.7822 14L12.6481 13.086L11.514 14L10.378 13.086L9.229 14L8.09577 13.086L7 13.9684V8H16Z" fill="#F2F2F2"/>
<path d="M43.1827 27.9197V30.4278H3.18604V27.9197H7.36069C8.33561 26.366 10.2105 25.3154 12.3603 25.3154C14.5017 25.3154 16.3766 26.366 17.3599 27.9197H30.7921C31.767 26.366 33.6327 25.3154 35.7826 25.3154C37.9324 25.3154 39.7989 26.366 40.7822 27.9197H43.1827Z" fill="#ABABBB"/>
<path d="M39.7747 30.4128C39.7747 32.3704 37.9873 33.9574 35.7825 33.9574C33.5777 33.9574 31.792 32.3704 31.792 30.4128C31.792 28.4551 33.5785 26.8682 35.7825 26.8682C37.9882 26.8682 39.7747 28.4551 39.7747 30.4128Z" fill="#40596B"/>
<path d="M37.3878 30.4118C37.3878 31.1983 36.6695 31.8353 35.7846 31.8353C34.8988 31.8353 34.1797 31.1983 34.1797 30.4118C34.1797 29.6253 34.898 28.9883 35.7846 28.9883C36.6695 28.9876 37.3878 29.6254 37.3878 30.4118Z" fill="#ACB3BA"/>
<path d="M16.3501 30.4128C16.3501 32.3704 14.5619 33.9574 12.3579 33.9574C10.1531 33.9574 8.36572 32.3704 8.36572 30.4128C8.36572 28.4551 10.1531 26.8682 12.3579 26.8682C14.5619 26.8682 16.3501 28.4551 16.3501 30.4128Z" fill="#40596B"/>
<path d="M13.9611 30.4118C13.9611 31.1983 13.2437 31.8353 12.3579 31.8353C11.4721 31.8353 10.7539 31.1983 10.7539 30.4118C10.7539 29.6253 11.4722 28.9883 12.3579 28.9883C13.2436 28.9883 13.9611 29.6254 13.9611 30.4118Z" fill="#ACB3BA"/>
<rect x="-1" y="33.957" width="44" height="2" rx="1" fill="#ABABBB"/>
</g>
<defs>
<clipPath id="clip0_1817_4795">
<rect width="44" height="44" fill="white" transform="translate(-1 -1)"/>
</clipPath>
</defs>
</svg>
