<svg width="36" height="36" viewBox="0 0 36 36" fill="none" xmlns="http://www.w3.org/2000/svg">
<path d="M28.6362 17.9492V21.3242H21.8862V17.9492C22.034 17.9493 22.1803 17.9203 22.3169 17.8638C22.4534 17.8073 22.5775 17.7244 22.682 17.6199C22.7864 17.5155 22.8693 17.3914 22.9258 17.2549C22.9823 17.1183 23.0113 16.972 23.0112 16.8242V15.6992H27.5112V16.8242C27.511 16.972 27.54 17.1184 27.5965 17.255C27.6529 17.3915 27.7358 17.5156 27.8403 17.6201C27.9448 17.7247 28.0689 17.8075 28.2055 17.864C28.3421 17.9204 28.4884 17.9494 28.6362 17.9492Z" fill="#F6DBE3"/>
<path d="M27.6007 17.263C26.8728 17.672 26.0594 17.9051 25.2254 17.9435C24.3914 17.982 23.56 17.8248 22.7976 17.4845C22.9368 17.2925 23.0117 17.0614 23.0114 16.8242V15.6992H27.5114V16.8242C27.5111 16.975 27.5415 17.1243 27.6007 17.263Z" fill="#E3CED4"/>
<path d="M17.1001 20.0708L15.6987 23.5742H20.1987V32.0117H30.3237V23.5742H34.2612V21.3242C34.2612 20.4291 33.9057 19.5707 33.2727 18.9377C32.6398 18.3048 31.7813 17.9492 30.8862 17.9492H28.6362L28.0052 18.7905C27.6772 19.2279 27.2518 19.5829 26.7628 19.8274C26.2738 20.0719 25.7346 20.1992 25.1878 20.1992C24.5338 20.1992 23.8927 20.0171 23.3363 19.6732C22.7799 19.3294 22.3303 18.8374 22.0378 18.2524L21.8862 17.9492H20.2339C19.5593 17.9492 18.9003 18.1513 18.3417 18.5294C17.7831 18.9076 17.3507 19.4445 17.1001 20.0708Z" fill="#2967F0"/>
<path d="M29.7612 21.3242H30.8862V23.5742H29.7612V21.3242Z" fill="#7989DC"/>
<path d="M25.2612 23.0122C24.1751 23.0118 23.1083 22.7259 22.1675 22.1832L22.73 21.209C23.4457 21.6222 24.2517 21.8539 25.0776 21.8839C25.9035 21.9139 26.7241 21.7412 27.4679 21.381L27.9583 22.3935C27.1171 22.7995 26.1953 23.011 25.2612 23.0122Z" fill="#7989DC"/>
<path d="M16.8237 32.0117H12.3237L15.6987 23.5742H20.1987L16.8237 32.0117Z" fill="#E3CED4"/>
<path d="M30.3237 12.3242H29.1987V8.94922H30.3237C30.7713 8.94922 31.2005 9.12701 31.517 9.44348C31.8334 9.75994 32.0112 10.1892 32.0112 10.6367C32.0112 11.0843 31.8334 11.5135 31.517 11.83C31.2005 12.1464 30.7713 12.3242 30.3237 12.3242Z" fill="#E3CED4"/>
<path d="M19.6362 8.94922H20.7612V12.3242H19.6362C19.1887 12.3242 18.7595 12.1464 18.443 11.83C18.1265 11.5135 17.9487 11.0843 17.9487 10.6367C17.9487 10.1892 18.1265 9.75994 18.443 9.44348C18.7595 9.12701 19.1887 8.94922 19.6362 8.94922Z" fill="#E3CED4"/>
<path d="M23.0112 4.44922H26.9487C27.8438 4.44922 28.7023 4.8048 29.3352 5.43773C29.9682 6.07067 30.3237 6.92911 30.3237 7.82422V11.4805C30.3237 12.8977 29.7607 14.2569 28.7586 15.2591C27.7564 16.2612 26.3972 16.8242 24.98 16.8242C23.5627 16.8242 22.2035 16.2612 21.2014 15.2591C20.1992 14.2569 19.6362 12.8977 19.6362 11.4805V7.82422C19.6362 6.92911 19.9918 6.07067 20.6247 5.43773C21.2577 4.8048 22.1161 4.44922 23.0112 4.44922Z" fill="#F6DBE3"/>
<path d="M30.3237 8.94922L29.0833 8.53571C28.4617 8.3285 27.9211 7.93099 27.538 7.39948C27.1549 6.86797 26.9488 6.2294 26.9487 5.57422V2.76172C27.8438 2.76172 28.7023 3.1173 29.3352 3.75023C29.9682 4.38317 30.3237 5.24161 30.3237 6.13672V8.94922Z" fill="#7F7369"/>
<path d="M26.9487 2.76172V5.57422C25.8544 6.3042 24.6584 6.86879 23.3994 7.24977C22.1406 7.63079 20.8326 7.82435 19.5174 7.82422H18.5112V6.13672C18.5112 4.94324 18.9853 3.79865 19.8293 2.95474C20.6732 2.11082 21.8178 1.63672 23.0112 1.63672H25.1283C25.5063 1.63666 25.8768 1.74188 26.1984 1.94058C26.5199 2.13929 26.7797 2.42363 26.9487 2.76172Z" fill="#4C4846"/>
<path d="M1.63623 32.0117H34.2612V34.2617H1.63623V32.0117Z" fill="#ABABBB"/>
<path d="M19.0737 14.0117H3.32373C2.39175 14.0117 1.63623 14.7672 1.63623 15.6992V25.8242C1.63623 26.7562 2.39175 27.5117 3.32373 27.5117H19.0737C20.0057 27.5117 20.7612 26.7562 20.7612 25.8242V15.6992C20.7612 14.7672 20.0057 14.0117 19.0737 14.0117Z" fill="#ABABBB"/>
<path d="M6.69873 16.2617H8.94873V17.3867H6.69873V16.2617Z" fill="#838393"/>
<path d="M10.0737 16.2617H12.3237V17.3867H10.0737V16.2617Z" fill="#838393"/>
<path d="M13.4487 16.2617H15.6987V17.3867H13.4487V16.2617Z" fill="#838393"/>
<path d="M16.8237 16.2617H19.0737V17.3867H16.8237V16.2617Z" fill="#838393"/>
<path d="M3.32373 16.2617H5.57373V17.3867H3.32373V16.2617Z" fill="#838393"/>
<path d="M11.1987 27.5117H13.4487L12.8862 24.1367H11.1987V27.5117Z" fill="#8E8E9A"/>
<path d="M7.82373 29.7617H14.5737V32.0117H7.82373V29.7617Z" fill="#8E8E9A"/>
<path d="M11.1987 32.0117H5.57373L8.94873 24.1367H12.8862L11.1987 32.0117Z" fill="#C7C7D7"/>
<path d="M16.8237 29.7617H23.5737V32.0117H16.8237V29.7617Z" fill="#E3CED4"/>
<path d="M30.3237 23.5742V28.0742H23.0112C22.4145 28.0742 21.8422 28.3113 21.4202 28.7332C20.9983 29.1552 20.7612 29.7275 20.7612 30.3242V31.4492C20.7612 31.5984 20.8205 31.7415 20.926 31.847C21.0315 31.9525 21.1745 32.0117 21.3237 32.0117H30.3237C31.368 32.0117 32.3695 31.5969 33.108 30.8585C33.8464 30.12 34.2612 29.1185 34.2612 28.0742V23.5742H30.3237Z" fill="#F6DBE3"/>
</svg>
