<svg width="20" height="20" viewBox="0 0 20 20" fill="none" xmlns="http://www.w3.org/2000/svg">
<path d="M2.12503 2.22521C0.710527 3.69446 1.00003 5.25521 1.00003 9.99671C1.00003 13.9342 0.313027 17.8815 3.90853 18.8107C5.03128 19.0995 14.9793 19.0995 16.1005 18.8092C17.5975 18.423 18.8155 17.2087 18.982 15.0915C19.0053 14.796 19.0053 5.20271 18.9813 4.90121C18.8043 2.64596 17.416 1.34621 15.5868 1.08296C15.1675 1.02221 15.0835 1.00421 12.9325 1.00046C5.30278 1.00421 3.63028 0.664462 2.12503 2.22521Z" fill="url(#paint0_linear_1846_2658)"/>
<path d="M9.99848 3.35407C7.27523 3.35407 4.68923 3.11182 3.70148 5.64682C3.29348 6.69382 3.35273 8.05357 3.35273 10.0006C3.35273 11.7091 3.29798 13.3148 3.70148 14.3536C4.68698 16.8901 7.29398 16.6471 9.99698 16.6471C12.6047 16.6471 15.2935 16.9186 16.2932 14.3536C16.702 13.2961 16.642 11.9566 16.642 10.0006C16.642 7.40407 16.7852 5.72782 15.526 4.46932C14.251 3.19432 12.5267 3.35407 9.99548 3.35407H9.99848ZM9.40298 4.55182C15.0835 4.54282 15.8065 3.91132 15.4075 12.6841C15.2657 15.7868 12.9032 15.4463 9.99923 15.4463C4.70423 15.4463 4.55198 15.2948 4.55198 9.99757C4.55198 4.63882 4.97198 4.55482 9.40298 4.55032V4.55182ZM13.546 5.65507C13.1057 5.65507 12.7487 6.01207 12.7487 6.45232C12.7487 6.89257 13.1057 7.24957 13.546 7.24957C13.9862 7.24957 14.3432 6.89257 14.3432 6.45232C14.3432 6.01207 13.9862 5.65507 13.546 5.65507ZM9.99848 6.58732C8.11373 6.58732 6.58598 8.11582 6.58598 10.0006C6.58598 11.8853 8.11373 13.4131 9.99848 13.4131C11.8832 13.4131 13.4102 11.8853 13.4102 10.0006C13.4102 8.11582 11.8832 6.58732 9.99848 6.58732ZM9.99848 7.78507C12.9272 7.78507 12.931 12.2161 9.99848 12.2161C7.07048 12.2161 7.06598 7.78507 9.99848 7.78507Z" fill="white"/>
<defs>
<linearGradient id="paint0_linear_1846_2658" x1="2.15954" y1="17.8508" x2="18.8886" y2="3.37194" gradientUnits="userSpaceOnUse">
<stop stop-color="#FFDD55"/>
<stop offset="0.5" stop-color="#FF543E"/>
<stop offset="1" stop-color="#C837AB"/>
</linearGradient>
</defs>
</svg>
