<svg width="20" height="20" viewBox="0 0 20 20" fill="none" xmlns="http://www.w3.org/2000/svg">
<path d="M17.65 1.00002H2.35C1.63 1.00002 1 1.5427 1 2.26632V17.7337C1 18.4573 1.63 19 2.35 19H17.65C18.37 19 19 18.4573 19 17.7337V2.26632C19 1.63315 18.37 1.00002 17.65 1.00002ZM6.31 16.4673H3.61V7.87437H6.31V16.4673ZM4.96 6.60802C4.06 6.60802 3.43 5.88444 3.43 5.07037C3.43 4.2563 4.15 3.53267 4.96 3.53267C5.77 3.53267 6.49 4.2563 6.49 5.07037C6.58 5.9749 5.86 6.60802 4.96 6.60802ZM16.3 16.4673H13.6V12.3066C13.6 11.3116 13.6 10.0452 12.25 10.0452C10.9 10.0452 10.63 11.1307 10.63 12.3066V16.5578H7.93001V7.9648H10.45V9.14073C10.81 8.41711 11.71 7.78394 12.97 7.78394C15.67 7.78394 16.21 9.59299 16.21 11.8543V16.4673H16.3Z" fill="#0077B5"/>
</svg>
