<svg width="24" height="24" viewBox="0 0 24 24" fill="none" xmlns="http://www.w3.org/2000/svg">
<g clip-path="url(#clip0_1846_911)">
<path d="M22.3688 21.6375L16.4063 15.675C16.1391 15.3938 15.6891 15.3938 15.4219 15.661C14.5922 16.4906 13.2563 16.4906 12.4266 15.675L8.32503 11.5418C7.50936 10.712 7.50936 9.3762 8.3391 8.54647C8.60628 8.27928 8.60628 7.82928 8.32503 7.5621L2.36254 1.59961C2.09536 1.31836 1.64536 1.31836 1.37817 1.59961C0.492236 2.47148 9.60886e-05 4.0746 9.60886e-05 6.08554C-0.0139664 9.50272 1.51416 14.7047 5.46571 18.6563C9.41727 22.6078 14.4516 24 17.8547 24C17.8547 24 17.8688 24 17.8829 24C19.8939 24 21.497 23.5079 22.3689 22.6219C22.6501 22.3547 22.6501 21.9047 22.3688 21.6375Z" fill="#DEDEE7"/>
<path d="M22.3688 21.6373C22.6501 21.9045 22.6501 22.3545 22.3688 22.6217C21.497 23.5076 19.8938 23.9997 17.8829 23.9997C17.8688 23.9997 17.8547 23.9997 17.8547 23.9997C14.4517 23.9997 9.41725 22.6075 5.4657 18.656L10.4438 13.6919L12.4266 15.6747C13.2563 16.4903 14.5922 16.4903 15.4219 15.6607C15.6891 15.3935 16.1391 15.3935 16.4063 15.6747L22.3688 21.6373Z" fill="#DEDEE7"/>
<path d="M9.3234 4.58083L5.34367 0.6011C4.55617 -0.200367 3.14992 -0.200367 2.34836 0.6011L1.37805 1.58547L8.33898 8.5464L9.32335 7.57609V7.56202C10.153 6.74645 10.153 5.3965 9.3234 4.58083Z" fill="#9FA8B0"/>
<path d="M23.3671 18.6566L19.3875 14.6769C18.6 13.8753 17.1937 13.8753 16.3922 14.6769L15.4219 15.6612L22.3828 22.6222L23.3671 21.6518C23.3671 21.6378 23.3671 21.6378 23.3671 21.6378C24.1969 20.8222 24.1969 19.4722 23.3671 18.6566Z" fill="#9FA8B0"/>
<path d="M24.0011 10.5469C24.0011 11.4749 22.5948 11.4749 22.5948 10.5469C22.5948 8.02963 21.5683 5.73744 19.923 4.07807C18.2636 2.43281 15.9715 1.40625 13.4542 1.40625C12.5262 1.40625 12.5262 0 13.4542 0C16.3652 0 19.0089 1.1812 20.9073 3.0937C22.8199 4.99218 24.0011 7.63592 24.0011 10.5469Z" fill="#2967F0"/>
<path d="M21.1875 10.5469C21.1875 11.4749 19.7813 11.4749 19.7813 10.5469C19.7813 8.80302 19.0641 7.21405 17.925 6.0749C16.7859 4.93584 15.1969 4.21875 13.4531 4.21875C12.5251 4.21875 12.5251 2.8125 13.4531 2.8125C15.5907 2.8125 17.5172 3.67031 18.9234 5.07656C20.3297 6.48281 21.1875 8.40932 21.1875 10.5469Z" fill="#2967F0"/>
<path d="M18.375 10.5469C18.375 11.4749 16.9688 11.4749 16.9688 10.5469C16.9688 9.57656 16.5751 8.70468 15.9422 8.05776C15.2953 7.42495 14.4234 7.03125 13.4531 7.03125C12.5251 7.03125 12.5251 5.625 13.4531 5.625C14.8172 5.625 16.0407 6.17339 16.9266 7.07339C17.8266 7.95932 18.375 9.18276 18.375 10.5469Z" fill="#2967F0"/>
<path d="M15.5625 10.5469C15.5625 11.4749 14.1563 11.4749 14.1563 10.5469C14.1563 10.35 14.0859 10.1671 13.9454 10.0546C13.8328 9.91406 13.65 9.84375 13.4531 9.84375C12.5251 9.84375 12.5251 8.4375 13.4531 8.4375C14.0297 8.4375 14.5641 8.67652 14.9438 9.05625C15.3235 9.43589 15.5625 9.97026 15.5625 10.5469Z" fill="#2967F0"/>
<path d="M14.1562 10.5473C14.1562 10.3504 14.0859 10.1675 13.9453 10.055L14.9437 9.05664C15.3234 9.43628 15.5624 9.97065 15.5624 10.5473C15.5624 11.4753 14.1562 11.4753 14.1562 10.5473Z" fill="#2967F0"/>
<path d="M16.9688 10.5472C16.9688 9.5769 16.5751 8.70502 15.9423 8.0581L16.9266 7.07373C17.8266 7.95967 18.375 9.1831 18.375 10.5472C18.375 11.4753 16.9688 11.4753 16.9688 10.5472Z" fill="#2967F0"/>
<path d="M19.7812 10.5465C19.7812 8.80268 19.064 7.21371 17.9249 6.07456L18.9234 5.07617C20.3297 6.48242 21.1875 8.40898 21.1875 10.5465C21.1874 11.4746 19.7812 11.4746 19.7812 10.5465Z" fill="#2967F0"/>
<path d="M23.9999 10.5469C23.9999 11.475 22.5937 11.475 22.5937 10.5469C22.5937 8.02968 21.5672 5.73749 19.9219 4.07812L20.9062 3.09375C22.8187 4.99223 23.9999 7.63598 23.9999 10.5469Z" fill="#2967F0"/>
</g>
<defs>
<clipPath id="clip0_1846_911">
<rect width="24" height="24" fill="white"/>
</clipPath>
</defs>
</svg>
